<?xml version="1.0" encoding="UTF-8"?>
<svg width="752pt" height="752pt" version="1.1" viewBox="0 0 752 752" xmlns="http://www.w3.org/2000/svg">
 <path d="m583.59 291.57c-10.348-25.43-45.152-37.441-98.168-33.988-28.773-26.602-67.215-42.887-109.41-42.887-86.141 0-156.73 67.879-161.09 152.96-40.297 34.508-56.797 67.375-46.461 92.789 9.1172 22.398 37.859 34.562 81.289 34.562 2.3008 0 4.6406-0.039062 7.0195-0.097656 3.2305-0.09375 6.5195-0.26562 9.8477-0.47656 28.773 26.605 67.215 42.887 109.41 42.887 86.152 0 156.74-67.879 161.1-152.96 2.4961-2.1445 4.9453-4.2969 7.2891-6.4492 34.852-32.09 48.766-62.75 39.176-86.336zm-207.57-59.051c79.062 0 143.39 64.277 143.48 143.32-16.297 13.238-35.617 26.062-57.047 37.973-5.6484-5.5508-13.398-8.9883-21.961-8.9883-17.32 0-31.367 14.043-31.367 31.367 0 1.1406 0.070312 2.2695 0.1875 3.3828-2.1133 0.89062-4.2188 1.7852-6.3594 2.6562-45.461 18.492-90.781 30.262-129.66 33.812-25.195-25.867-40.758-61.148-40.758-100.02 0.003906-79.133 64.375-143.5 143.48-143.5zm-191.05 221.21c-6.1758-15.184 5.1211-37.91 30.469-62.461 3.0547 32.344 15.691 61.945 35.047 85.906-35.613 0.13672-59.344-8.2969-65.516-23.445zm191.05 65.762c-31.582 0-60.793-10.285-84.531-27.637 36.621-5.1719 77.434-16.539 118.18-33.113 2.1914-0.89453 4.3555-1.8203 6.5273-2.7266 5.7539 7.043 14.5 11.535 24.293 11.535 17.32 0 31.359-14.043 31.359-31.355 0-2.3359-0.28125-4.6094-0.76172-6.7969 16.812-9.3516 32.422-19.25 46.391-29.5-11.414 67.781-70.484 119.59-141.46 119.59zm160.59-158.75c-3.0547-32.344-15.691-61.941-35.047-85.914 35.352-0.13281 59.332 8.25 65.516 23.445 6.1602 15.148-4.9258 37.75-30.469 62.469z" fill="#fff"/>
</svg>
